<svg xmlns="http://www.w3.org/2000/svg" viewBox="0 0 32 32">
  <defs>
    <radialGradient id="g" cx="50%" cy="50%" r="50%">
      <stop offset="0%" stop-color="#FFD27A" stop-opacity="0.9"></stop>
      <stop offset="100%" stop-color="#E8A33D" stop-opacity="0"></stop>
    </radialGradient>
  </defs>
  <rect width="32" height="32" rx="8" fill="#07090A"></rect>
  <circle cx="16" cy="16" r="12" fill="url(#g)" opacity="0.7"></circle>
  <g stroke="#E8A33D" stroke-width="1.2" stroke-linecap="round">
    <line x1="16" y1="16" x2="8" y2="8" stroke-opacity="0.4"></line>
    <line x1="16" y1="16" x2="25" y2="8" stroke-opacity="0.82"></line>
    <line x1="16" y1="16" x2="27" y2="17" stroke-opacity="0.5"></line>
    <line x1="16" y1="16" x2="24" y2="25" stroke-opacity="0.75"></line>
    <line x1="16" y1="16" x2="8" y2="23" stroke-opacity="0.4"></line>
    <line x1="16" y1="16" x2="6" y2="16" stroke-opacity="0.35"></line>
  </g>
  <circle cx="8" cy="8" r="1.6" fill="#9A6E28"></circle>
  <circle cx="27" cy="17" r="1.4" fill="#DCA044"></circle>
  <circle cx="24" cy="25" r="1.9" fill="#F0B24A"></circle>
  <circle cx="8" cy="23" r="1.6" fill="#A9762E"></circle>
  <circle cx="6" cy="16" r="1.3" fill="#8A6022"></circle>
  <circle cx="25" cy="8" r="2.6" fill="#FFDD8C"></circle>
  <circle cx="21" cy="11.5" r="1.3" fill="#FFF0CC"></circle>
  <circle cx="16" cy="16" r="3.7" fill="#FFF2D2"></circle>
  <circle cx="16" cy="16" r="1.9" fill="#FFFFFF"></circle>
</svg>
