<svg xmlns="http://www.w3.org/2000/svg" viewBox="0 0 32 32" width="32" height="32" role="img" aria-label="Brain Memory"><defs><radialGradient id="core" cx="50%" cy="50%" r="50%"><stop offset="0%" stop-color="#8FDDFF" stop-opacity="0.95"/><stop offset="100%" stop-color="#46C6FF" stop-opacity="0"/></radialGradient></defs><rect x="0" y="0" width="32" height="32" rx="7" ry="7" fill="#07090A"/>
  <circle cx="16" cy="16" r="12" fill="url(#core)" opacity="0.7"/>
  <g stroke="#2E9FD6" stroke-width="1.25" stroke-linecap="round">
    <line x1="16" y1="16" x2="8"  y2="8"  stroke-opacity="0.4"/>
    <line x1="16" y1="16" x2="25" y2="8"  stroke-opacity="0.82"/>
    <line x1="16" y1="16" x2="27" y2="17" stroke-opacity="0.5"/>
    <line x1="16" y1="16" x2="24" y2="25" stroke-opacity="0.75"/>
    <line x1="16" y1="16" x2="8"  y2="23" stroke-opacity="0.4"/>
    <line x1="16" y1="16" x2="6"  y2="16" stroke-opacity="0.35"/>
  </g>
  <circle cx="8"  cy="8"  r="1.6" fill="#1C7FB0"/>
  <circle cx="27" cy="17" r="1.4" fill="#4FB8E6"/>
  <circle cx="24" cy="25" r="1.9" fill="#2E9FD6"/>
  <circle cx="8"  cy="23" r="1.6" fill="#2389BE"/>
  <circle cx="6"  cy="16" r="1.3" fill="#1B6E97"/>
  <circle cx="25" cy="8"  r="2.4" fill="#6FD3FF"/>
  <circle cx="21" cy="11.5" r="1.3" fill="#CFEEFF"/>
  <circle cx="16" cy="16" r="3.7" fill="#DFF4FF"/>
  <circle cx="16" cy="16" r="1.9" fill="#FFFFFF"/></svg>
